<svg width="50" height="48" viewBox="0 0 50 48" fill="none" xmlns="http://www.w3.org/2000/svg">
<path d="M12.2969 21.6094C12.1667 21.1875 11.987 20.8099 11.7578 20.4766C11.5339 20.138 11.263 19.849 10.9453 19.6094C10.6328 19.3698 10.2734 19.1901 9.86719 19.0703C9.46094 18.9453 9.01823 18.8828 8.53906 18.8828C7.67969 18.8828 6.91406 19.099 6.24219 19.5313C5.57031 19.9635 5.04167 20.599 4.65625 21.4375C4.27604 22.2708 4.08594 23.2865 4.08594 24.4844C4.08594 25.6927 4.27604 26.7161 4.65625 27.5547C5.03646 28.3932 5.5651 29.0312 6.24219 29.4687C6.91927 29.901 7.70573 30.1172 8.60156 30.1172C9.41406 30.1172 10.1172 29.9609 10.7109 29.6484C11.3099 29.3359 11.7708 28.8932 12.0938 28.3203C12.4167 27.7422 12.5781 27.0651 12.5781 26.2891L13.2344 26.3906H8.89063V24.125H15.3828V26.0469C15.3828 27.4167 15.0911 28.6016 14.5078 29.6016C13.9245 30.6016 13.1224 31.3724 12.1016 31.9141C11.0807 32.4505 9.90885 32.7187 8.58594 32.7187C7.11198 32.7187 5.81771 32.388 4.70313 31.7266C3.59375 31.0599 2.72656 30.1146 2.10156 28.8906C1.48177 27.6615 1.17188 26.2031 1.17188 24.5156C1.17188 23.224 1.35417 22.0703 1.71875 21.0547C2.08854 20.0391 2.60417 19.1771 3.26562 18.4687C3.92708 17.7552 4.70313 17.2135 5.59375 16.8437C6.48438 16.4687 7.45313 16.2812 8.5 16.2812C9.38542 16.2812 10.2109 16.4115 10.9766 16.6719C11.7422 16.9271 12.4219 17.2917 13.0156 17.7656C13.6146 18.2396 14.1068 18.8021 14.4922 19.4531C14.8776 20.1042 15.1302 20.8229 15.25 21.6094H12.2969ZM23.2949 32.7344C22.123 32.7344 21.1074 32.4766 20.248 31.9609C19.3887 31.4453 18.722 30.724 18.248 29.7969C17.7793 28.8698 17.5449 27.7865 17.5449 26.5469C17.5449 25.3073 17.7793 24.2214 18.248 23.2891C18.722 22.3568 19.3887 21.6328 20.248 21.1172C21.1074 20.6016 22.123 20.3438 23.2949 20.3438C24.4668 20.3438 25.4824 20.6016 26.3418 21.1172C27.2012 21.6328 27.8652 22.3568 28.334 23.2891C28.8079 24.2214 29.0449 25.3073 29.0449 26.5469C29.0449 27.7865 28.8079 28.8698 28.334 29.7969C27.8652 30.724 27.2012 31.4453 26.3418 31.9609C25.4824 32.4766 24.4668 32.7344 23.2949 32.7344ZM23.3105 30.4687C23.946 30.4687 24.4772 30.2943 24.9043 29.9453C25.3314 29.5911 25.6491 29.1172 25.8574 28.5234C26.071 27.9297 26.1777 27.2682 26.1777 26.5391C26.1777 25.8047 26.071 25.1406 25.8574 24.5469C25.6491 23.9479 25.3314 23.4714 24.9043 23.1172C24.4772 22.763 23.946 22.5859 23.3105 22.5859C22.6595 22.5859 22.1178 22.763 21.6855 23.1172C21.2585 23.4714 20.9382 23.9479 20.7246 24.5469C20.5163 25.1406 20.4121 25.8047 20.4121 26.5391C20.4121 27.2682 20.5163 27.9297 20.7246 28.5234C20.9382 29.1172 21.2585 29.5911 21.6855 29.9453C22.1178 30.2943 22.6595 30.4687 23.3105 30.4687ZM34.2734 16.5V32.5H31.4453V16.5H34.2734ZM41.6348 32.7109C40.6921 32.7109 39.8483 32.4688 39.1035 31.9844C38.3587 31.5 37.7702 30.7969 37.3379 29.875C36.9056 28.9531 36.6895 27.8333 36.6895 26.5156C36.6895 25.1823 36.9082 24.0573 37.3457 23.1406C37.7884 22.2187 38.3848 21.5234 39.1348 21.0547C39.8848 20.5807 40.7207 20.3438 41.6426 20.3438C42.3457 20.3438 42.9238 20.4635 43.377 20.7031C43.8301 20.9375 44.1895 21.2214 44.4551 21.5547C44.7207 21.8828 44.9264 22.1927 45.0723 22.4844H45.1895V16.5H48.0254V32.5H45.2441V30.6094H45.0723C44.9264 30.901 44.7155 31.2109 44.4395 31.5391C44.1634 31.862 43.7988 32.138 43.3457 32.3672C42.8926 32.5964 42.3223 32.7109 41.6348 32.7109ZM42.4238 30.3906C43.0228 30.3906 43.5332 30.2292 43.9551 29.9062C44.377 29.5781 44.6973 29.1224 44.916 28.5391C45.1348 27.9557 45.2441 27.276 45.2441 26.5C45.2441 25.724 45.1348 25.0495 44.916 24.4766C44.7025 23.9036 44.3848 23.4583 43.9629 23.1406C43.5462 22.8229 43.0332 22.6641 42.4238 22.6641C41.7936 22.6641 41.2676 22.8281 40.8457 23.1562C40.4238 23.4844 40.1061 23.9375 39.8926 24.5156C39.679 25.0937 39.5723 25.7552 39.5723 26.5C39.5723 27.25 39.679 27.9193 39.8926 28.5078C40.1113 29.0911 40.4316 29.5521 40.8535 29.8906C41.2806 30.224 41.804 30.3906 42.4238 30.3906Z" fill="black"/>
</svg>
