<svg xmlns="http://www.w3.org/2000/svg" version="1.1" xmlns:xlink="http://www.w3.org/1999/xlink"
  xmlns:svgjs="http://svgjs.com/svgjs" width="1025" height="1025">
  <svg width="1025" height="1025" viewBox="0 0 1025 1025" fill="none"
    xmlns="http://www.w3.org/2000/svg">
    <path
      d="M512.767 547.538C493.462 535.154 480.183 517.501 464.353 502.552C440.307 479.846 417.498 455.835 393.727 432.83C386.396 425.735 387.004 421.244 394.094 414.196C487.996 320.842 581.765 227.351 675.092 133.422C685.671 122.774 692.383 123.338 702.499 133.515C795.291 226.869 888.341 319.968 981.662 412.794C990.389 421.473 989.888 426.735 981.489 435.106C852.018 564.139 722.82 693.448 593.54 822.673C569.773 846.431 545.714 869.903 522.232 893.938C515.214 901.12 510.452 900.946 503.424 893.892C372.616 762.581 241.631 631.446 110.648 500.309C88.6984 478.334 66.7997 456.299 44.4313 434.754C35.9967 426.63 35.6842 421.237 44.528 412.441C137.229 320.246 229.474 227.592 321.828 135.047C336.343 120.502 337.386 120.17 352.232 134.943C386.154 168.699 419.53 203.009 453.675 236.536C462.251 244.957 462.366 250.616 453.896 259.026C405.128 307.453 356.842 356.365 308.199 404.918C290.741 422.342 290.281 424.429 307.113 441.318C371.397 505.82 435.79 570.212 500.117 634.671C507.193 641.761 513.514 646.475 523.027 636.907C591.563 567.971 660.436 499.369 729.166 430.625C730.916 428.875 732.254 426.714 734.461 423.873C723.026 407.869 707.905 395.717 694.426 382.084C687.193 374.768 682.457 381.723 677.998 386.155C649.474 414.503 621.123 443.025 592.693 471.468C570.382 493.79 548.109 516.15 525.638 538.309C522.117 541.781 519.344 546.499 512.767 547.538Z"
      fill="currentColor"></path>
  </svg>
</svg>