<svg width="94" height="48" viewBox="0 0 94 48" fill="none" xmlns="http://www.w3.org/2000/svg">
  <path
    d="M1.57812 32.5V16.5H7.57813C8.80729 16.5 9.83854 16.7292 10.6719 17.1875C11.5104 17.6458 12.1432 18.276 12.5703 19.0781C13.0026 19.875 13.2188 20.7812 13.2188 21.7969C13.2188 22.8229 13.0026 23.7344 12.5703 24.5313C12.138 25.3281 11.5 25.9557 10.6562 26.4141C9.8125 26.8672 8.77344 27.0937 7.53906 27.0937H3.5625V24.7109H7.14844C7.86719 24.7109 8.45573 24.5859 8.91406 24.3359C9.3724 24.0859 9.71094 23.7422 9.92969 23.3047C10.1536 22.8672 10.2656 22.3646 10.2656 21.7969C10.2656 21.2292 10.1536 20.7292 9.92969 20.2969C9.71094 19.8646 9.36979 19.5286 8.90625 19.2891C8.44792 19.0443 7.85677 18.9219 7.13281 18.9219H4.47656V32.5H1.57812ZM18.4395 16.5V32.5H15.6113V16.5H18.4395ZM24.8008 32.7422C24.0404 32.7422 23.3555 32.6068 22.7461 32.3359C22.1419 32.0599 21.6628 31.6536 21.3086 31.1172C20.9596 30.5807 20.7852 29.9193 20.7852 29.1328C20.7852 28.4557 20.9102 27.8958 21.1602 27.4531C21.4102 27.0104 21.7513 26.6562 22.1836 26.3906C22.6159 26.125 23.1029 25.9245 23.6445 25.7891C24.1914 25.6484 24.7565 25.5469 25.3398 25.4844C26.043 25.4115 26.6133 25.3464 27.0508 25.2891C27.4883 25.2266 27.806 25.1328 28.0039 25.0078C28.207 24.8776 28.3086 24.6771 28.3086 24.4062V24.3594C28.3086 23.7708 28.1341 23.3151 27.7852 22.9922C27.4362 22.6693 26.9336 22.5078 26.2773 22.5078C25.5846 22.5078 25.0352 22.6589 24.6289 22.9609C24.2279 23.263 23.957 23.6198 23.8164 24.0312L21.1758 23.6562C21.3841 22.9271 21.7279 22.3177 22.207 21.8281C22.6862 21.3333 23.2721 20.9635 23.9648 20.7187C24.6576 20.4688 25.4232 20.3438 26.2617 20.3438C26.8398 20.3438 27.4154 20.4115 27.9883 20.5469C28.5612 20.6823 29.0846 20.9062 29.5586 21.2187C30.0326 21.526 30.4128 21.9453 30.6992 22.4766C30.9909 23.0078 31.1367 23.6719 31.1367 24.4687V32.5H28.418V30.8516H28.3242C28.1523 31.1849 27.9102 31.4974 27.5977 31.7891C27.2904 32.0755 26.9023 32.3073 26.4336 32.4844C25.9701 32.6563 25.4258 32.7422 24.8008 32.7422ZM25.5352 30.6641C26.1029 30.6641 26.5951 30.5521 27.0117 30.3281C27.4284 30.099 27.7487 29.7969 27.9727 29.4219C28.2018 29.0469 28.3164 28.638 28.3164 28.1953V26.7812C28.2279 26.8542 28.0768 26.9219 27.8633 26.9844C27.6549 27.0469 27.4206 27.1016 27.1602 27.1484C26.8997 27.1953 26.6419 27.237 26.3867 27.2734C26.1315 27.3099 25.9102 27.3411 25.7227 27.3672C25.3008 27.4245 24.9232 27.5182 24.5898 27.6484C24.2565 27.7786 23.9935 27.9609 23.8008 28.1953C23.6081 28.4245 23.5117 28.7214 23.5117 29.0859C23.5117 29.6068 23.7018 30 24.082 30.2656C24.4622 30.5312 24.9466 30.6641 25.5352 30.6641ZM39.9727 20.5V22.6875H33.0742V20.5H39.9727ZM34.7773 17.625H37.6055V28.8906C37.6055 29.2708 37.6628 29.5625 37.7773 29.7656C37.8971 29.9635 38.0534 30.099 38.2461 30.1719C38.4388 30.2448 38.6523 30.2812 38.8867 30.2812C39.0638 30.2812 39.2253 30.2682 39.3711 30.2422C39.5221 30.2161 39.6367 30.1927 39.7148 30.1719L40.1914 32.3828C40.0404 32.4349 39.8242 32.4922 39.543 32.5547C39.2669 32.6172 38.9284 32.6536 38.5273 32.6641C37.819 32.6849 37.181 32.5781 36.6133 32.3437C36.0456 32.1042 35.5951 31.7344 35.2617 31.2344C34.9336 30.7344 34.7721 30.1094 34.7773 29.3594V17.625ZM42.3379 32.5V20.5H45.166V32.5H42.3379ZM43.7598 18.7969C43.3118 18.7969 42.9264 18.6484 42.6035 18.3516C42.2806 18.0495 42.1191 17.6875 42.1191 17.2656C42.1191 16.8385 42.2806 16.4766 42.6035 16.1797C42.9264 15.8776 43.3118 15.7266 43.7598 15.7266C44.2129 15.7266 44.5983 15.8776 44.916 16.1797C45.2389 16.4766 45.4004 16.8385 45.4004 17.2656C45.4004 17.6875 45.2389 18.0495 44.916 18.3516C44.5983 18.6484 44.2129 18.7969 43.7598 18.7969ZM50.9023 25.4687V32.5H48.0742V20.5H50.7773V22.5391H50.918C51.194 21.8672 51.6341 21.3333 52.2383 20.9375C52.8477 20.5417 53.6003 20.3438 54.4961 20.3438C55.3242 20.3438 56.0456 20.5208 56.6602 20.875C57.2799 21.2292 57.7591 21.7422 58.0977 22.4141C58.4414 23.0859 58.6107 23.901 58.6055 24.8594V32.5H55.7773V25.2969C55.7773 24.4948 55.569 23.8672 55.1523 23.4141C54.7409 22.9609 54.1706 22.7344 53.4414 22.7344C52.9466 22.7344 52.5065 22.8437 52.1211 23.0625C51.7409 23.276 51.4414 23.5859 51.2227 23.9922C51.0091 24.3984 50.9023 24.8906 50.9023 25.4687ZM69.1289 27.4531V20.5H71.957V32.5H69.2148V30.3672H69.0898C68.819 31.0391 68.3737 31.5885 67.7539 32.0156C67.1393 32.4427 66.3815 32.6563 65.4805 32.6563C64.694 32.6563 63.9987 32.4818 63.3945 32.1328C62.7956 31.7786 62.3268 31.2656 61.9883 30.5938C61.6497 29.9167 61.4805 29.099 61.4805 28.1406V20.5H64.3086V27.7031C64.3086 28.4635 64.5169 29.0677 64.9336 29.5156C65.3503 29.9635 65.8971 30.1875 66.5742 30.1875C66.9909 30.1875 67.3945 30.0859 67.7852 29.8828C68.1758 29.6797 68.4961 29.3776 68.7461 28.9766C69.0013 28.5703 69.1289 28.0625 69.1289 27.4531ZM74.8652 32.5V20.5H77.5684V22.5391H77.709C77.959 21.8516 78.373 21.3151 78.9512 20.9297C79.5293 20.5391 80.2194 20.3438 81.0215 20.3438C81.834 20.3438 82.5189 20.5417 83.0762 20.9375C83.6387 21.3281 84.0345 21.862 84.2637 22.5391H84.3887C84.6543 21.8724 85.1022 21.3411 85.7324 20.9453C86.3678 20.5443 87.1204 20.3438 87.9902 20.3438C89.0944 20.3438 89.9954 20.6927 90.6934 21.3906C91.3913 22.0885 91.7402 23.1068 91.7402 24.4453V32.5H88.9043V24.8828C88.9043 24.138 88.7064 23.5937 88.3105 23.25C87.9147 22.901 87.4303 22.7266 86.8574 22.7266C86.1751 22.7266 85.6413 22.9401 85.2559 23.3672C84.8757 23.7891 84.6855 24.3385 84.6855 25.0156V32.5H81.9121V24.7656C81.9121 24.1458 81.7246 23.651 81.3496 23.2812C80.9798 22.9115 80.4954 22.7266 79.8965 22.7266C79.4902 22.7266 79.1204 22.8307 78.7871 23.0391C78.4538 23.2422 78.1882 23.5312 77.9902 23.9062C77.7923 24.276 77.6934 24.7083 77.6934 25.2031V32.5H74.8652Z"
    fill="black" />
</svg>