<svg width="60" height="48" viewBox="0 0 60 48" fill="none" xmlns="http://www.w3.org/2000/svg">
<path d="M10.2734 20.8984C10.2005 20.2161 9.89323 19.6849 9.35156 19.3047C8.8151 18.9245 8.11719 18.7344 7.25781 18.7344C6.65365 18.7344 6.13542 18.8255 5.70313 19.0078C5.27083 19.1901 4.9401 19.4375 4.71094 19.75C4.48177 20.0625 4.36458 20.4193 4.35938 20.8203C4.35938 21.1536 4.4349 21.4427 4.58594 21.6875C4.74219 21.9323 4.95313 22.1406 5.21875 22.3125C5.48438 22.4792 5.77865 22.6198 6.10156 22.7344C6.42448 22.849 6.75 22.9453 7.07813 23.0234L8.57813 23.3984C9.18229 23.5391 9.76302 23.7292 10.3203 23.9687C10.8828 24.2083 11.3854 24.5104 11.8281 24.875C12.276 25.2396 12.6302 25.6797 12.8906 26.1953C13.151 26.7109 13.2813 27.3151 13.2813 28.0078C13.2813 28.9453 13.0417 29.7708 12.5625 30.4844C12.0833 31.1927 11.3906 31.7474 10.4844 32.1484C9.58333 32.5443 8.49219 32.7422 7.21094 32.7422C5.96615 32.7422 4.88542 32.5495 3.96875 32.1641C3.05729 31.7786 2.34375 31.2161 1.82813 30.4766C1.31771 29.737 1.04167 28.8359 1 27.7734H3.85156C3.89323 28.3307 4.0651 28.7943 4.36719 29.1641C4.66927 29.5339 5.0625 29.8099 5.54688 29.9922C6.03646 30.1745 6.58333 30.2656 7.1875 30.2656C7.81771 30.2656 8.36979 30.1719 8.84375 29.9844C9.32292 29.7917 9.69792 29.526 9.96875 29.1875C10.2396 28.8437 10.3776 28.4427 10.3828 27.9844C10.3776 27.5677 10.2552 27.224 10.0156 26.9531C9.77604 26.6771 9.4401 26.4479 9.00781 26.2656C8.58073 26.0781 8.08073 25.9115 7.50781 25.7656L5.6875 25.2969C4.36979 24.9583 3.32813 24.4453 2.5625 23.7578C1.80208 23.0651 1.42188 22.1458 1.42188 21C1.42188 20.0573 1.67708 19.2318 2.1875 18.5234C2.70313 17.8151 3.40365 17.2656 4.28906 16.875C5.17448 16.4792 6.17708 16.2812 7.29688 16.2812C8.43229 16.2812 9.42708 16.4792 10.2813 16.875C11.1406 17.2656 11.8151 17.8099 12.3047 18.5078C12.7943 19.2005 13.0469 19.9974 13.0625 20.8984H10.2734ZM15.7402 32.5V20.5H18.5684V32.5H15.7402ZM17.1621 18.7969C16.7142 18.7969 16.3288 18.6484 16.0059 18.3516C15.6829 18.0495 15.5215 17.6875 15.5215 17.2656C15.5215 16.8385 15.6829 16.4766 16.0059 16.1797C16.3288 15.8776 16.7142 15.7266 17.1621 15.7266C17.6152 15.7266 18.0007 15.8776 18.3184 16.1797C18.6413 16.4766 18.8027 16.8385 18.8027 17.2656C18.8027 17.6875 18.6413 18.0495 18.3184 18.3516C18.0007 18.6484 17.6152 18.7969 17.1621 18.7969ZM24.3047 16.5V32.5H21.4766V16.5H24.3047ZM37.9316 20.5L33.6582 32.5H30.5332L26.2598 20.5H29.2754L32.0332 29.4141H32.1582L34.9238 20.5H37.9316ZM44.793 32.7344C43.5898 32.7344 42.5508 32.4844 41.6758 31.9844C40.806 31.4792 40.1367 30.7656 39.668 29.8437C39.1992 28.9167 38.9648 27.8255 38.9648 26.5703C38.9648 25.3359 39.1992 24.2526 39.668 23.3203C40.1419 22.3828 40.8034 21.6536 41.6523 21.1328C42.5013 20.6068 43.4987 20.3438 44.6445 20.3438C45.3841 20.3438 46.082 20.4635 46.7383 20.7031C47.3997 20.9375 47.9831 21.3021 48.4883 21.7969C48.9987 22.2917 49.3997 22.9219 49.6914 23.6875C49.9831 24.4479 50.1289 25.3542 50.1289 26.4062V27.2734H40.293V25.3672H47.418C47.4128 24.8255 47.2956 24.3437 47.0664 23.9219C46.8372 23.4948 46.5169 23.1589 46.1055 22.9141C45.6992 22.6693 45.2253 22.5469 44.6836 22.5469C44.1055 22.5469 43.5977 22.6875 43.1602 22.9687C42.7227 23.2448 42.3815 23.6094 42.1367 24.0625C41.8971 24.5104 41.7747 25.0026 41.7695 25.5391V27.2031C41.7695 27.901 41.8971 28.5 42.1523 29C42.4076 29.4948 42.7643 29.875 43.2227 30.1406C43.681 30.401 44.2174 30.5312 44.832 30.5312C45.2435 30.5312 45.6159 30.474 45.9492 30.3594C46.2826 30.2396 46.5716 30.0651 46.8164 29.8359C47.0612 29.6068 47.2461 29.3229 47.3711 28.9844L50.0117 29.2812C49.8451 29.9792 49.5273 30.5885 49.0586 31.1094C48.5951 31.625 48.0013 32.026 47.2773 32.3125C46.5534 32.5937 45.7253 32.7344 44.793 32.7344ZM52.5215 32.5V20.5H55.2637V22.5H55.3887C55.6074 21.8073 55.9824 21.2734 56.5137 20.8984C57.0501 20.5182 57.6621 20.3281 58.3496 20.3281C58.5059 20.3281 58.6803 20.3359 58.873 20.3516C59.071 20.362 59.235 20.3802 59.3652 20.4062V23.0078C59.2454 22.9661 59.0553 22.9297 58.7949 22.8984C58.5397 22.862 58.2923 22.8437 58.0527 22.8437C57.5371 22.8437 57.0736 22.9557 56.6621 23.1797C56.2559 23.3984 55.9355 23.7031 55.7012 24.0937C55.4668 24.4844 55.3496 24.9349 55.3496 25.4453V32.5H52.5215Z" fill="black"/>
</svg>
